<?xml version="1.0" encoding="UTF-8"?>
<svg version="1.1" xmlns="http://www.w3.org/2000/svg" width="520" height="520">
<path d="M0 0 C171.6 0 343.2 0 520 0 C520 171.6 520 343.2 520 520 C348.4 520 176.8 520 0 520 C0 348.4 0 176.8 0 0 Z " fill="#2FAD21" transform="translate(0,0)"/>
<path d="M0 0 C171.6 0 343.2 0 520 0 C520 171.6 520 343.2 520 520 C348.4 520 176.8 520 0 520 C0 348.4 0 176.8 0 0 Z M262 16 C261.26885986 16.42418213 260.53771973 16.84836426 259.78442383 17.28540039 C255.65936082 19.88025913 251.81580774 22.97000579 248 26 C247.04609375 26.75667969 246.0921875 27.51335938 245.109375 28.29296875 C239.33385066 33.17795566 235.4526978 38.27706404 232 45 C228.40158874 43.40447803 225.57987093 41.18409154 222.5 38.75 C202.22261903 23.32942121 178.2577963 20.3147099 153.36523438 23.31787109 C148.73336589 24.0901788 144.41644496 25.38484298 140 27 C138.82050781 27.4125 137.64101562 27.825 136.42578125 28.25 C117.99986718 35.38522745 104.09966366 47.90012537 95.67578125 65.81640625 C94.69816608 68.19684466 93.79944367 70.5541773 93 73 C92.46439453 74.51400391 92.46439453 74.51400391 91.91796875 76.05859375 C90.48706809 81.17956706 90.65924899 86.40865631 90.6875 91.6875 C90.69241455 92.76169189 90.6973291 93.83588379 90.70239258 94.94262695 C90.8122164 102.35601647 91.42393645 108.99892405 94 116 C94.3403125 117.01320313 94.680625 118.02640625 95.03125 119.0703125 C105.52872577 148.50580198 128.1444134 174.28796386 152 194 C152.52867676 194.4424707 153.05735352 194.88494141 153.60205078 195.34082031 C163.31952594 203.46014738 173.35578917 211.01458218 183.67822266 218.34423828 C186.06922922 220.04937041 188.44825025 221.7700775 190.82421875 223.49609375 C191.61779785 224.07230469 192.41137695 224.64851562 193.22900391 225.2421875 C194.72797497 226.3312077 196.22639494 227.42098707 197.72412109 228.51171875 C202.73171237 232.13915477 207.83342693 235.60314228 213 239 C202.8792249 237.39308028 192.91372674 235.34510132 182.9375 233 C159.23157106 227.46631017 135.37103116 223.87322913 111 223 C109.74058594 222.94714844 108.48117188 222.89429688 107.18359375 222.83984375 C79.54308292 222.20853119 52.46479707 229.86833096 32 249 C24.28051934 256.5956801 19.16250055 265.10249869 15 275 C14.6390625 275.8559375 14.278125 276.711875 13.90625 277.59375 C9.80533159 289.59273351 10.64631002 305.89587756 14 318 C14.24492187 318.93328125 14.48984375 319.8665625 14.7421875 320.828125 C19.76338304 337.80243205 29.98316421 352.56338485 45 362 C56.07224139 367.848284 68.37695235 371.75738286 81 371 C80.58427734 372.28583984 80.58427734 372.28583984 80.16015625 373.59765625 C79.79792969 374.74105469 79.43570313 375.88445312 79.0625 377.0625 C78.52302734 378.75052734 78.52302734 378.75052734 77.97265625 380.47265625 C75.92654953 387.89287459 75.81725265 395.10773653 75.8125 402.75 C75.79413086 404.28140625 75.79413086 404.28140625 75.77539062 405.84375 C75.7323761 428.44071351 86.08148268 445.76422322 101.51171875 461.60546875 C117.23069343 477.22245495 136.89936585 482.2708326 158.44262695 482.3190918 C175.22773647 482.10391588 189.72761339 476.07761745 203 466 C204.03125 465.236875 205.0625 464.47375 206.125 463.6875 C234.04427607 437.58904628 245.65313235 393.94564523 255.13183594 358.22314453 C256.81234539 351.9840878 258.59953681 345.77504017 260.375 339.5625 C260.72143555 338.33998535 261.06787109 337.1174707 261.42480469 335.85791016 C261.74610352 334.73046387 262.06740234 333.60301758 262.3984375 332.44140625 C262.68380371 331.43795166 262.96916992 330.43449707 263.26318359 329.40063477 C264 327 264 327 265 325 C267.08722665 331.36193973 267.83898663 337.74990791 268.6875 344.375 C270.91877515 360.77850266 274.31748925 376.86842963 278 393 C278.22843597 394.00142029 278.22843597 394.00142029 278.46148682 395.02307129 C281.61823733 408.81637908 284.78945582 422.5955916 289.33447266 436.0078125 C290.08613566 438.25783822 290.79925981 440.51851253 291.51171875 442.78125 C297.1875436 460.59492012 304.39571448 477.7266365 312.375 494.625 C312.77952393 495.48351562 313.18404785 496.34203125 313.60083008 497.2265625 C317.00623049 505.49335156 317.00623049 505.49335156 323.41015625 510.8671875 C330.82740837 510.88903508 334.71150144 508.65287473 340.42578125 504.0390625 C344.54897297 500.77304417 348.98322282 498.78917368 353.875 496.875 C356.1650641 496.09134615 356.1650641 496.09134615 358 494 C358.57142538 490.62339551 358.2030006 489.30014762 356.26953125 486.44140625 C355.45871094 485.49136719 354.64789063 484.54132813 353.8125 483.5625 C343.31848193 470.5886986 335.58685808 455.63618086 328.3125 440.6875 C327.82676514 439.69540527 327.34103027 438.70331055 326.84057617 437.68115234 C316.76928356 416.49998066 309.17720408 394.33392823 301.75341797 372.12542725 C300.82093064 369.34122768 299.88179623 366.55929052 298.94245243 363.77739811 C297.80425748 360.4058011 296.66943393 357.03307279 295.53515625 353.66015625 C295.12266129 352.43402115 294.71016632 351.20788605 294.28517151 349.94459534 C292.07234744 343.32869915 289.94926865 336.69854178 288 330 C293.29612387 336.27263262 298.50951007 342.59231686 303.5625 349.0625 C314.67834564 363.2835035 325.97881434 377.46508269 339 390 C344 395 344 395 345.55078125 396.69140625 C362.12164542 414.2558126 385.83324481 427.45853454 410.19921875 428.3359375 C438.43028772 428.7323142 460.60934269 420.8231127 481.56640625 401.65234375 C486.79056172 396.19027608 490.09980325 389.93878849 493 383 C493.34160156 382.195625 493.68320312 381.39125 494.03515625 380.5625 C500.29304829 362.40005983 496.17218997 338.83565829 488.8203125 321.52734375 C485.86084527 315.79258214 482.07557792 310.98850737 478 306 C477.34 305.01 476.68 304.02 476 303 C476.66644531 302.61070312 477.33289063 302.22140625 478.01953125 301.8203125 C494.69957329 291.69564362 504.2496212 280.02705485 509 261 C510.47676864 254.70199628 510.18427718 248.37346468 510.1875 241.9375 C510.19974609 240.67744141 510.21199219 239.41738281 510.22460938 238.11914062 C510.25745502 216.93370266 504.0410035 199.89512408 489.4453125 184.28515625 C475.16191419 170.93725208 456.14943129 166.07016987 437.05078125 166.65625 C411.21888837 168.06370865 387.69892162 178.37563876 365 190 C363.91992676 190.55107422 362.83985352 191.10214844 361.72705078 191.66992188 C339.29590374 203.20384501 318.5423639 216.67370493 298.49267578 231.95288086 C297 233 297 233 296 233 C306.60410478 217.83307129 317.92046273 203.20484793 329.3125 188.625 C347.78165472 164.95038347 365.53859489 140.37771182 376 112 C376.34675781 111.08605469 376.69351562 110.17210938 377.05078125 109.23046875 C383.4570516 91.40828537 381.20262992 71.22177232 373.30859375 54.39453125 C363.1567963 35.29897905 345.42850231 17.49518153 324.55949402 10.65835571 C320.23912456 9.54706579 315.99220584 9.51228417 311.55078125 9.49609375 C310.08816109 9.48111595 310.08816109 9.48111595 308.59599304 9.46583557 C306.54296066 9.45073092 304.48985547 9.44360739 302.43676758 9.4440918 C299.33743281 9.4375526 296.24134468 9.38305031 293.14257812 9.32617188 C281.39764937 9.22495607 272.33951475 9.93201161 262 16 Z " fill="#FEFEFE" transform="translate(0,0)"/>
</svg>
